<svg width="113" height="116" viewBox="0 0 113 116" fill="none" xmlns="http://www.w3.org/2000/svg">
<path d="M105.297 56.6491C105.297 47.0232 102.442 37.6138 97.0931 29.6109C91.743 21.6092 84.1393 15.3738 75.2449 11.6944C66.3505 8.01497 56.5636 7.05699 47.1241 8.9415C37.6846 10.8261 29.0162 15.4687 22.2164 22.2814C15.4166 29.0941 10.7905 37.771 8.92372 47.2143C7.05691 56.6576 8.03315 66.4416 11.7301 75.3294C15.426 84.2172 21.676 91.8087 29.6883 97.1437C37.7006 102.478 47.1157 105.316 56.7406 105.297M89.0873 99.8926C86.2198 99.8926 83.47 98.7535 81.4422 96.7257C79.4153 94.6979 78.2762 91.9481 78.2762 89.0815C78.2762 86.214 79.4153 83.4641 81.4422 81.4373C83.47 79.4095 86.2198 78.2704 89.0873 78.2704M89.0873 99.8926C91.9539 99.8926 94.7038 98.7535 96.7316 96.7257C98.7584 94.6979 99.8975 91.9481 99.8975 89.0815C99.8975 86.214 98.7584 83.4641 96.7316 81.4373C94.7038 79.4095 91.9539 78.2704 89.0873 78.2704M89.0873 99.8926V108M89.0873 78.2704V70.162M105.471 79.6222L98.4496 83.6759M79.7297 94.487L72.7031 98.5407M72.7031 79.6222L79.7297 83.6759M98.4496 94.487L105.476 98.5407M40.4326 45.838H40.4872M72.865 45.838H72.9196" stroke="#1ED760" stroke-width="15" stroke-linecap="round" stroke-linejoin="round"/>
<path d="M43.1335 72.8658C46.6901 76.3254 51.5666 78.2713 56.6474 78.2713" stroke="#1ED760" stroke-width="15" stroke-linecap="round" stroke-linejoin="round"/>
</svg>
