<svg width="822" height="221" viewBox="0 0 822 221" fill="none" xmlns="http://www.w3.org/2000/svg">
<path d="M278.353 131.677C278.353 121.452 275.32 111.457 269.638 102.956C263.955 94.4562 255.878 87.8327 246.43 83.9243C236.982 80.0159 226.586 78.9983 216.559 81.0001C206.532 83.002 197.324 87.9335 190.101 95.1703C182.878 102.407 177.964 111.624 175.981 121.655C173.998 131.686 175.035 142.079 178.962 151.52C182.888 160.961 189.527 169.025 198.038 174.692C206.549 180.358 216.55 183.373 226.774 183.353M261.134 177.612C258.088 177.612 255.167 176.402 253.013 174.248C250.86 172.094 249.65 169.173 249.65 166.128C249.65 163.082 250.86 160.161 253.013 158.008C255.167 155.854 258.088 154.644 261.134 154.644M261.134 177.612C264.179 177.612 267.1 176.402 269.254 174.248C271.407 172.094 272.617 169.173 272.617 166.128C272.617 163.082 271.407 160.161 269.254 158.008C267.1 155.854 264.179 154.644 261.134 154.644M261.134 177.612V186.224M261.134 154.644V146.031M278.537 156.08L271.079 160.386M251.194 171.87L243.73 176.176M243.73 156.08L251.194 160.386M271.079 171.87L278.543 176.176M209.451 120.193H209.509M243.902 120.193H243.96" stroke="#1ED760" stroke-width="15" stroke-linecap="round" stroke-linejoin="round"/>
<path d="M212.32 148.903C216.098 152.578 221.278 154.645 226.675 154.645" stroke="#1ED760" stroke-width="15" stroke-linecap="round" stroke-linejoin="round"/>
<path d="M156.8 186H126.2V94.6L86.8 154.4H86L47 95.2V186H16.8V46H50L86.8 105.2L123.6 46H156.8V186ZM417.955 132.6C417.955 163.4 393.155 188.4 359.755 188.4C326.555 188.4 301.955 163.8 301.955 133V132.6C301.955 101.8 326.755 76.8 360.155 76.8C393.355 76.8 417.955 101.4 417.955 132.2V132.6ZM387.955 133V132.6C387.955 116.8 376.555 103 359.755 103C342.355 103 331.955 116.4 331.955 132.2V132.6C331.955 148.4 343.355 162.2 360.155 162.2C377.555 162.2 387.955 148.8 387.955 133ZM547.767 186H517.367V170.6C509.967 180.6 499.767 188 483.967 188C458.967 188 435.167 168.4 435.167 132.6V132.2C435.167 96.4 458.567 76.8 483.967 76.8C500.167 76.8 510.167 84.2 517.367 92.8V40H547.767V186ZM517.767 132.6V132.2C517.767 114.4 505.967 102.6 491.767 102.6C477.567 102.6 465.567 114.2 465.567 132.2V132.6C465.567 150.4 477.567 162.2 491.767 162.2C505.967 162.2 517.767 150.4 517.767 132.6ZM607.528 67H575.528V40H607.528V67ZM606.728 186H576.328V78.8H606.728V186ZM695.28 66.8C690.88 65.2 686.68 64.2 681.48 64.2C674.48 64.2 670.48 67.8 670.48 75.8V80H695.08V104.8H670.88V186H640.48V104.8H627.88V79.8H640.48V73C640.48 49.4 652.28 38.6 673.68 38.6C683.28 38.6 689.68 39.8 695.28 41.6V66.8ZM813.647 78.8L772.447 188.6C764.247 210.4 755.447 218.6 737.247 218.6C726.247 218.6 718.047 215.8 710.247 211.2L720.447 189.2C724.447 191.6 729.447 193.4 733.447 193.4C738.647 193.4 741.447 191.8 744.047 186.4L702.047 78.8H734.247L758.647 151.8L782.047 78.8H813.647Z" fill="#1ED760"/>
</svg>
